<mxfile host="app.diagrams.net" modified="2024-04-29T14:47:11.852Z" agent="Mozilla/5.0 (Windows NT 10.0; Win64; x64) AppleWebKit/537.36 (KHTML, like Gecko) Chrome/123.0.0.0 Safari/537.36" etag="NQrO6MbUFaq0qvltgWvX" version="24.3.1" type="github">
  <diagram name="PÃ¡gina-1" id="oVaEgiJdiTL3DDmX3KHA">
    <mxGraphModel dx="6681" dy="3257" grid="1" gridSize="10" guides="1" tooltips="1" connect="1" arrows="1" fold="1" page="1" pageScale="1" pageWidth="827" pageHeight="1169" math="0" shadow="0">
      <root>
        <mxCell id="0" />
        <mxCell id="1" parent="0" />
        <mxCell id="VRDyyH-_hqpiAX2L6ovN-33" value="" style="rounded=0;whiteSpace=wrap;html=1;fillColor=#ffe6cc;strokeColor=#d79b00;" vertex="1" parent="1">
          <mxGeometry x="-210" y="-250" width="1230" height="1080" as="geometry" />
        </mxCell>
        <mxCell id="VRDyyH-_hqpiAX2L6ovN-4" value="" style="outlineConnect=0;dashed=0;verticalLabelPosition=bottom;verticalAlign=top;align=center;html=1;shape=mxgraph.aws3.cloud_2;fillColor=#F58534;gradientColor=none;" vertex="1" parent="1">
          <mxGeometry x="250" y="-380" width="250" height="210" as="geometry" />
        </mxCell>
        <mxCell id="VRDyyH-_hqpiAX2L6ovN-19" value="&lt;font style=&quot;font-size: 36px;&quot;&gt;&lt;span style=&quot;font-family: &amp;quot;Times New Roman&amp;quot;; text-align: start; white-space: pre;&quot;&gt;&lt;b&gt;Private IPV4&lt;/b&gt;&lt;/span&gt;&lt;/font&gt;&lt;div&gt;&lt;div style=&quot;text-align: start;&quot;&gt;&lt;font face=&quot;Times New Roman&quot;&gt;&lt;span style=&quot;font-size: 36px; white-space: pre;&quot;&gt;&lt;b&gt;172.31.44.176&lt;/b&gt;&lt;/span&gt;&lt;/font&gt;&lt;b style=&quot;font-size: 36px; color: rgb(22, 25, 31); font-family: &amp;quot;Amazon Ember&amp;quot;, &amp;quot;Helvetica Neue&amp;quot;, Roboto, Arial, sans-serif;&quot;&gt;6&lt;/b&gt;&lt;/div&gt;&lt;div style=&quot;&quot;&gt;&lt;div style=&quot;font-size: 36px;&quot;&gt;&lt;span style=&quot;font-family: &amp;quot;Times New Roman&amp;quot;; text-align: start; white-space: pre;&quot;&gt;&lt;br&gt;&lt;/span&gt;&lt;/div&gt;&lt;/div&gt;&lt;/div&gt;" style="text;html=1;align=center;verticalAlign=middle;whiteSpace=wrap;rounded=0;" vertex="1" parent="1">
          <mxGeometry x="-335" y="170.13" width="250" height="135.75" as="geometry" />
        </mxCell>
        <mxCell id="VRDyyH-_hqpiAX2L6ovN-21" value="&lt;font style=&quot;font-size: 24px;&quot;&gt;Amazon API Gateway&lt;/font&gt;" style="sketch=0;outlineConnect=0;fontColor=#232F3E;gradientColor=none;strokeColor=#ffffff;fillColor=#232F3E;dashed=0;verticalLabelPosition=middle;verticalAlign=bottom;align=center;html=1;whiteSpace=wrap;fontSize=10;fontStyle=1;spacing=3;shape=mxgraph.aws4.productIcon;prIcon=mxgraph.aws4.api_gateway;" vertex="1" parent="1">
          <mxGeometry x="-510" y="175" width="160" height="220" as="geometry" />
        </mxCell>
        <mxCell id="VRDyyH-_hqpiAX2L6ovN-25" style="edgeStyle=orthogonalEdgeStyle;rounded=0;orthogonalLoop=1;jettySize=auto;html=1;strokeWidth=10;" edge="1" parent="1" source="VRDyyH-_hqpiAX2L6ovN-24" target="VRDyyH-_hqpiAX2L6ovN-21">
          <mxGeometry relative="1" as="geometry" />
        </mxCell>
        <mxCell id="VRDyyH-_hqpiAX2L6ovN-24" value="" style="outlineConnect=0;dashed=0;verticalLabelPosition=bottom;verticalAlign=top;align=center;html=1;shape=mxgraph.aws3.internet_2;fillColor=#D2D3D3;gradientColor=none;" vertex="1" parent="1">
          <mxGeometry x="-1110" y="196.5" width="279.5" height="172" as="geometry" />
        </mxCell>
        <mxCell id="VRDyyH-_hqpiAX2L6ovN-26" value="&lt;div style=&quot;&quot;&gt;&lt;div style=&quot;&quot;&gt;&lt;span style=&quot;font-family: &amp;quot;Times New Roman&amp;quot;; text-align: start; white-space: pre;&quot;&gt;&lt;font style=&quot;font-size: 36px;&quot;&gt;&lt;b&gt;Internet&lt;/b&gt;&lt;/font&gt;&lt;/span&gt;&lt;/div&gt;&lt;/div&gt;" style="text;html=1;align=center;verticalAlign=middle;whiteSpace=wrap;rounded=0;" vertex="1" parent="1">
          <mxGeometry x="-1085.25" y="357.5" width="230" height="95" as="geometry" />
        </mxCell>
        <mxCell id="VRDyyH-_hqpiAX2L6ovN-29" value="&lt;font style=&quot;font-size: 36px;&quot;&gt;&lt;span style=&quot;font-family: &amp;quot;Times New Roman&amp;quot;; text-align: start; white-space: pre;&quot;&gt;&lt;b&gt;Public IPV4&lt;/b&gt;&lt;/span&gt;&lt;/font&gt;&lt;div&gt;&lt;font style=&quot;font-size: 36px;&quot;&gt;&lt;b&gt;&lt;span style=&quot;font-family: &amp;quot;Times New Roman&amp;quot;; text-align: start; white-space: pre;&quot;&gt;16.170.215.219&lt;/span&gt;&lt;br&gt;&lt;/b&gt;&lt;/font&gt;&lt;div style=&quot;font-size: 36px;&quot;&gt;&lt;span style=&quot;font-family: &amp;quot;Times New Roman&amp;quot;; text-align: start; white-space: pre;&quot;&gt;&lt;br&gt;&lt;/span&gt;&lt;/div&gt;&lt;/div&gt;" style="text;html=1;align=center;verticalAlign=middle;whiteSpace=wrap;rounded=0;" vertex="1" parent="1">
          <mxGeometry x="-1520" y="193" width="250" height="90" as="geometry" />
        </mxCell>
        <mxCell id="VRDyyH-_hqpiAX2L6ovN-2" value="" style="rounded=1;whiteSpace=wrap;html=1;fillColor=#dae8fc;strokeColor=#6c8ebf;" vertex="1" parent="1">
          <mxGeometry x="-85" y="-120" width="1005" height="790" as="geometry" />
        </mxCell>
        <mxCell id="VRDyyH-_hqpiAX2L6ovN-3" value="&lt;font style=&quot;font-size: 36px;&quot;&gt;Amazon EC2&lt;/font&gt;" style="sketch=0;outlineConnect=0;fontColor=#232F3E;gradientColor=none;strokeColor=#ffffff;fillColor=#232F3E;dashed=0;verticalLabelPosition=middle;verticalAlign=bottom;align=center;html=1;whiteSpace=wrap;fontSize=10;fontStyle=1;spacing=3;shape=mxgraph.aws4.productIcon;prIcon=mxgraph.aws4.ec2;" vertex="1" parent="1">
          <mxGeometry x="26.15" y="160" width="160" height="250" as="geometry" />
        </mxCell>
        <mxCell id="VRDyyH-_hqpiAX2L6ovN-10" value="" style="edgeStyle=orthogonalEdgeStyle;rounded=0;orthogonalLoop=1;jettySize=auto;html=1;strokeWidth=10;" edge="1" parent="1" source="VRDyyH-_hqpiAX2L6ovN-5" target="VRDyyH-_hqpiAX2L6ovN-3">
          <mxGeometry relative="1" as="geometry" />
        </mxCell>
        <mxCell id="VRDyyH-_hqpiAX2L6ovN-5" value="" style="shape=image;html=1;verticalAlign=top;verticalLabelPosition=bottom;labelBackgroundColor=#ffffff;imageAspect=0;aspect=fixed;image=https://cdn1.iconfinder.com/data/icons/operating-system-flat-1/30/ubuntu-128.png" vertex="1" parent="1">
          <mxGeometry x="314.12" y="195.12" width="181.75" height="181.75" as="geometry" />
        </mxCell>
        <mxCell id="VRDyyH-_hqpiAX2L6ovN-11" style="edgeStyle=orthogonalEdgeStyle;rounded=0;orthogonalLoop=1;jettySize=auto;html=1;strokeWidth=10;" edge="1" parent="1" source="VRDyyH-_hqpiAX2L6ovN-6" target="VRDyyH-_hqpiAX2L6ovN-5">
          <mxGeometry relative="1" as="geometry" />
        </mxCell>
        <mxCell id="VRDyyH-_hqpiAX2L6ovN-6" value="" style="dashed=0;outlineConnect=0;html=1;align=center;labelPosition=center;verticalLabelPosition=bottom;verticalAlign=top;shape=mxgraph.webicons.apache;gradientColor=#DFDEDE" vertex="1" parent="1">
          <mxGeometry x="670" y="-50" width="140" height="142.4" as="geometry" />
        </mxCell>
        <mxCell id="VRDyyH-_hqpiAX2L6ovN-12" value="" style="edgeStyle=orthogonalEdgeStyle;rounded=0;orthogonalLoop=1;jettySize=auto;html=1;strokeWidth=10;" edge="1" parent="1" source="VRDyyH-_hqpiAX2L6ovN-7" target="VRDyyH-_hqpiAX2L6ovN-5">
          <mxGeometry relative="1" as="geometry">
            <Array as="points">
              <mxPoint x="600" y="286" />
              <mxPoint x="600" y="286" />
            </Array>
          </mxGeometry>
        </mxCell>
        <mxCell id="VRDyyH-_hqpiAX2L6ovN-7" value="" style="outlineConnect=0;dashed=0;verticalLabelPosition=bottom;verticalAlign=top;align=center;html=1;shape=mxgraph.aws3.mysql_db_instance;fillColor=#2E73B8;gradientColor=none;" vertex="1" parent="1">
          <mxGeometry x="640" y="207.5" width="150" height="150" as="geometry" />
        </mxCell>
        <mxCell id="VRDyyH-_hqpiAX2L6ovN-13" style="edgeStyle=orthogonalEdgeStyle;rounded=0;orthogonalLoop=1;jettySize=auto;html=1;strokeWidth=10;" edge="1" parent="1" target="VRDyyH-_hqpiAX2L6ovN-5">
          <mxGeometry relative="1" as="geometry">
            <mxPoint x="645" y="507.66666666666697" as="sourcePoint" />
          </mxGeometry>
        </mxCell>
        <mxCell id="VRDyyH-_hqpiAX2L6ovN-15" value="&lt;span style=&quot;font-size: 36px;&quot;&gt;mysql&lt;/span&gt;" style="text;html=1;align=center;verticalAlign=middle;whiteSpace=wrap;rounded=0;" vertex="1" parent="1">
          <mxGeometry x="620" y="350" width="160" height="70" as="geometry" />
        </mxCell>
        <mxCell id="VRDyyH-_hqpiAX2L6ovN-16" value="&lt;font style=&quot;font-size: 36px;&quot;&gt;phpmyadmin&lt;/font&gt;" style="text;html=1;align=center;verticalAlign=middle;whiteSpace=wrap;rounded=0;" vertex="1" parent="1">
          <mxGeometry x="635.0000000000001" y="585" width="160" height="70" as="geometry" />
        </mxCell>
        <mxCell id="VRDyyH-_hqpiAX2L6ovN-17" value="&lt;font style=&quot;font-size: 36px;&quot;&gt;apache&lt;/font&gt;" style="text;html=1;align=center;verticalAlign=middle;whiteSpace=wrap;rounded=0;" vertex="1" parent="1">
          <mxGeometry x="650" y="110" width="160" height="70" as="geometry" />
        </mxCell>
        <mxCell id="VRDyyH-_hqpiAX2L6ovN-18" value="&lt;font style=&quot;font-size: 36px;&quot;&gt;ubuntu server&lt;/font&gt;" style="text;html=1;align=center;verticalAlign=middle;whiteSpace=wrap;rounded=0;" vertex="1" parent="1">
          <mxGeometry x="274.99" y="341.75" width="260" height="70" as="geometry" />
        </mxCell>
        <mxCell id="VRDyyH-_hqpiAX2L6ovN-30" value="&lt;font style=&quot;font-size: 36px;&quot;&gt;Amazon VPC&lt;/font&gt;" style="sketch=0;outlineConnect=0;fontColor=#232F3E;gradientColor=none;strokeColor=#ffffff;fillColor=#232F3E;dashed=0;verticalLabelPosition=middle;verticalAlign=bottom;align=center;html=1;whiteSpace=wrap;fontSize=10;fontStyle=1;spacing=3;shape=mxgraph.aws4.productIcon;prIcon=mxgraph.aws4.vpc;" vertex="1" parent="1">
          <mxGeometry x="-85" y="-135.75" width="180" height="270" as="geometry" />
        </mxCell>
        <mxCell id="VRDyyH-_hqpiAX2L6ovN-22" style="edgeStyle=orthogonalEdgeStyle;rounded=0;orthogonalLoop=1;jettySize=auto;html=1;strokeWidth=10;" edge="1" parent="1" source="VRDyyH-_hqpiAX2L6ovN-21" target="VRDyyH-_hqpiAX2L6ovN-3">
          <mxGeometry relative="1" as="geometry" />
        </mxCell>
        <mxCell id="VRDyyH-_hqpiAX2L6ovN-34" value="" style="sketch=0;outlineConnect=0;fontColor=#232F3E;gradientColor=none;fillColor=#01A88D;strokeColor=none;dashed=0;verticalLabelPosition=bottom;verticalAlign=top;align=center;html=1;fontSize=12;fontStyle=0;aspect=fixed;shape=mxgraph.aws4.transfer_for_ftp_resource;" vertex="1" parent="1">
          <mxGeometry x="40" y="490" width="146.15" height="150" as="geometry" />
        </mxCell>
        <mxCell id="VRDyyH-_hqpiAX2L6ovN-38" value="&lt;div&gt;&lt;div style=&quot;font-size: 36px;&quot;&gt;&lt;span style=&quot;font-family: &amp;quot;Times New Roman&amp;quot;; text-align: start; white-space: pre;&quot;&gt;SSH Key&lt;/span&gt;&lt;/div&gt;&lt;/div&gt;" style="text;html=1;align=center;verticalAlign=middle;whiteSpace=wrap;rounded=0;" vertex="1" parent="1">
          <mxGeometry x="-1028.1100000000001" y="850" width="250" height="207.5" as="geometry" />
        </mxCell>
        <mxCell id="VRDyyH-_hqpiAX2L6ovN-41" style="edgeStyle=orthogonalEdgeStyle;rounded=0;orthogonalLoop=1;jettySize=auto;html=1;strokeWidth=10;" edge="1" parent="1" source="VRDyyH-_hqpiAX2L6ovN-39" target="VRDyyH-_hqpiAX2L6ovN-34">
          <mxGeometry relative="1" as="geometry">
            <Array as="points">
              <mxPoint x="113" y="760" />
            </Array>
          </mxGeometry>
        </mxCell>
        <mxCell id="VRDyyH-_hqpiAX2L6ovN-39" value="" style="image;aspect=fixed;html=1;points=[];align=center;fontSize=12;image=img/lib/azure2/other/SSH_Keys.svg;" vertex="1" parent="1">
          <mxGeometry x="-1059.9999999999998" y="640" width="294.67" height="260" as="geometry" />
        </mxCell>
        <mxCell id="VRDyyH-_hqpiAX2L6ovN-42" value="" style="shape=image;verticalLabelPosition=bottom;labelBackgroundColor=default;verticalAlign=top;aspect=fixed;imageAspect=0;image=https://upload.wikimedia.org/wikipedia/commons/thumb/4/4f/PhpMyAdmin_logo.svg/2560px-PhpMyAdmin_logo.svg.png;" vertex="1" parent="1">
          <mxGeometry x="570" y="437.5" width="251.12" height="140" as="geometry" />
        </mxCell>
        <mxCell id="VRDyyH-_hqpiAX2L6ovN-50" style="edgeStyle=orthogonalEdgeStyle;rounded=0;orthogonalLoop=1;jettySize=auto;html=1;strokeWidth=10;" edge="1" parent="1" source="VRDyyH-_hqpiAX2L6ovN-43" target="VRDyyH-_hqpiAX2L6ovN-24">
          <mxGeometry relative="1" as="geometry">
            <Array as="points">
              <mxPoint x="-1470" y="283" />
              <mxPoint x="-1470" y="283" />
            </Array>
          </mxGeometry>
        </mxCell>
        <mxCell id="VRDyyH-_hqpiAX2L6ovN-43" value="" style="sketch=0;aspect=fixed;pointerEvents=1;shadow=0;dashed=0;html=1;strokeColor=none;labelPosition=center;verticalLabelPosition=bottom;verticalAlign=top;align=center;fillColor=#00188D;shape=mxgraph.azure.laptop" vertex="1" parent="1">
          <mxGeometry x="-1960" y="151.25" width="412.5" height="247.5" as="geometry" />
        </mxCell>
        <mxCell id="VRDyyH-_hqpiAX2L6ovN-45" value="&lt;div&gt;&lt;div style=&quot;&quot;&gt;&lt;span style=&quot;font-family: &amp;quot;Times New Roman&amp;quot;; text-align: start; white-space: pre;&quot;&gt;&lt;b style=&quot;&quot;&gt;&lt;font style=&quot;font-size: 56px;&quot;&gt;USER&lt;/font&gt;&lt;/b&gt;&lt;/span&gt;&lt;/div&gt;&lt;/div&gt;" style="text;html=1;align=center;verticalAlign=middle;whiteSpace=wrap;rounded=0;" vertex="1" parent="1">
          <mxGeometry x="-1880" y="193" width="270.63" height="125.88" as="geometry" />
        </mxCell>
        <mxCell id="VRDyyH-_hqpiAX2L6ovN-47" style="edgeStyle=orthogonalEdgeStyle;rounded=0;orthogonalLoop=1;jettySize=auto;html=1;strokeWidth=10;" edge="1" parent="1" source="VRDyyH-_hqpiAX2L6ovN-46" target="VRDyyH-_hqpiAX2L6ovN-39">
          <mxGeometry relative="1" as="geometry" />
        </mxCell>
        <mxCell id="VRDyyH-_hqpiAX2L6ovN-46" value="" style="fontColor=#0066CC;verticalAlign=top;verticalLabelPosition=bottom;labelPosition=center;align=center;html=1;outlineConnect=0;fillColor=#CCCCCC;strokeColor=#6881B3;gradientColor=none;gradientDirection=north;strokeWidth=2;shape=mxgraph.networks.pc;" vertex="1" parent="1">
          <mxGeometry x="-1927.5" y="627" width="370" height="286" as="geometry" />
        </mxCell>
        <mxCell id="VRDyyH-_hqpiAX2L6ovN-48" value="&lt;div&gt;&lt;div style=&quot;font-size: 36px;&quot;&gt;&lt;span style=&quot;font-family: &amp;quot;Times New Roman&amp;quot;; text-align: start; white-space: pre;&quot;&gt;&lt;b&gt;DEVELOPER&lt;/b&gt;&lt;/span&gt;&lt;/div&gt;&lt;/div&gt;" style="text;html=1;align=center;verticalAlign=middle;whiteSpace=wrap;rounded=0;" vertex="1" parent="1">
          <mxGeometry x="-1820" y="710" width="248.75" height="72.5" as="geometry" />
        </mxCell>
        <mxCell id="VRDyyH-_hqpiAX2L6ovN-49" value="&lt;div&gt;&lt;div style=&quot;font-size: 36px;&quot;&gt;&lt;span style=&quot;font-family: &amp;quot;Times New Roman&amp;quot;; text-align: start; white-space: pre;&quot;&gt;&lt;b&gt;KEY .pem&lt;/b&gt;&lt;/span&gt;&lt;/div&gt;&lt;/div&gt;" style="text;html=1;align=center;verticalAlign=middle;whiteSpace=wrap;rounded=0;" vertex="1" parent="1">
          <mxGeometry x="-1430" y="600" width="250" height="207.5" as="geometry" />
        </mxCell>
      </root>
    </mxGraphModel>
  </diagram>
</mxfile>
